<mxfile host="app.diagrams.net" modified="2022-12-01T22:55:06.828Z" agent="5.0 (Macintosh; Intel Mac OS X 10_15_7) AppleWebKit/537.36 (KHTML, like Gecko) Chrome/107.0.0.0 Safari/537.36" etag="YVKFlsC9-gzY9eQtZCMu" version="20.5.3" type="github">
  <diagram id="Hc7prOj4-SbugONmXe-O" name="PÃ¡gina-1">
    <mxGraphModel dx="2036" dy="1190" grid="1" gridSize="10" guides="1" tooltips="1" connect="1" arrows="1" fold="1" page="1" pageScale="1" pageWidth="827" pageHeight="1169" math="0" shadow="0">
      <root>
        <mxCell id="0" />
        <mxCell id="1" parent="0" />
        <mxCell id="qHvhRaKQ_mvzGdm3MgKn-15" style="edgeStyle=orthogonalEdgeStyle;rounded=0;orthogonalLoop=1;jettySize=auto;html=1;" edge="1" parent="1" source="qHvhRaKQ_mvzGdm3MgKn-1" target="qHvhRaKQ_mvzGdm3MgKn-2">
          <mxGeometry relative="1" as="geometry" />
        </mxCell>
        <mxCell id="qHvhRaKQ_mvzGdm3MgKn-1" value="Inicio" style="ellipse;whiteSpace=wrap;html=1;aspect=fixed;" vertex="1" parent="1">
          <mxGeometry x="374" y="10" width="80" height="80" as="geometry" />
        </mxCell>
        <mxCell id="qHvhRaKQ_mvzGdm3MgKn-16" style="edgeStyle=orthogonalEdgeStyle;rounded=0;orthogonalLoop=1;jettySize=auto;html=1;entryX=0.5;entryY=0;entryDx=0;entryDy=0;entryPerimeter=0;" edge="1" parent="1" source="qHvhRaKQ_mvzGdm3MgKn-2" target="qHvhRaKQ_mvzGdm3MgKn-3">
          <mxGeometry relative="1" as="geometry" />
        </mxCell>
        <mxCell id="qHvhRaKQ_mvzGdm3MgKn-2" value="&quot;Informe a nota do primeiro bimestre&quot;, nota1" style="shape=card;whiteSpace=wrap;html=1;" vertex="1" parent="1">
          <mxGeometry x="304" y="120" width="220" height="100" as="geometry" />
        </mxCell>
        <mxCell id="qHvhRaKQ_mvzGdm3MgKn-17" style="edgeStyle=orthogonalEdgeStyle;rounded=0;orthogonalLoop=1;jettySize=auto;html=1;" edge="1" parent="1" source="qHvhRaKQ_mvzGdm3MgKn-3" target="qHvhRaKQ_mvzGdm3MgKn-4">
          <mxGeometry relative="1" as="geometry" />
        </mxCell>
        <mxCell id="qHvhRaKQ_mvzGdm3MgKn-3" value="&quot;Informe a nota do segundo bimestre&quot;, nota2" style="shape=card;whiteSpace=wrap;html=1;" vertex="1" parent="1">
          <mxGeometry x="303" y="260" width="220" height="100" as="geometry" />
        </mxCell>
        <mxCell id="qHvhRaKQ_mvzGdm3MgKn-18" style="edgeStyle=orthogonalEdgeStyle;rounded=0;orthogonalLoop=1;jettySize=auto;html=1;" edge="1" parent="1" source="qHvhRaKQ_mvzGdm3MgKn-4" target="qHvhRaKQ_mvzGdm3MgKn-5">
          <mxGeometry relative="1" as="geometry" />
        </mxCell>
        <mxCell id="qHvhRaKQ_mvzGdm3MgKn-4" value="&quot;Informe a nota do terceiro bimestre&quot;, nota3" style="shape=card;whiteSpace=wrap;html=1;" vertex="1" parent="1">
          <mxGeometry x="304" y="390" width="220" height="100" as="geometry" />
        </mxCell>
        <mxCell id="qHvhRaKQ_mvzGdm3MgKn-19" style="edgeStyle=orthogonalEdgeStyle;rounded=0;orthogonalLoop=1;jettySize=auto;html=1;entryX=0.5;entryY=0;entryDx=0;entryDy=0;" edge="1" parent="1" source="qHvhRaKQ_mvzGdm3MgKn-5" target="qHvhRaKQ_mvzGdm3MgKn-6">
          <mxGeometry relative="1" as="geometry" />
        </mxCell>
        <mxCell id="qHvhRaKQ_mvzGdm3MgKn-5" value="&quot;Informe a nota do quarto bimestre&quot;, nota4" style="shape=card;whiteSpace=wrap;html=1;" vertex="1" parent="1">
          <mxGeometry x="304" y="530" width="220" height="100" as="geometry" />
        </mxCell>
        <mxCell id="qHvhRaKQ_mvzGdm3MgKn-20" style="edgeStyle=orthogonalEdgeStyle;rounded=0;orthogonalLoop=1;jettySize=auto;html=1;entryX=0.5;entryY=0;entryDx=0;entryDy=0;" edge="1" parent="1" source="qHvhRaKQ_mvzGdm3MgKn-6" target="qHvhRaKQ_mvzGdm3MgKn-7">
          <mxGeometry relative="1" as="geometry" />
        </mxCell>
        <mxCell id="qHvhRaKQ_mvzGdm3MgKn-6" value="media = (nota1+nota2+nota3+nota4)/4;" style="rounded=0;whiteSpace=wrap;html=1;" vertex="1" parent="1">
          <mxGeometry x="305" y="670" width="216" height="100" as="geometry" />
        </mxCell>
        <mxCell id="qHvhRaKQ_mvzGdm3MgKn-10" style="edgeStyle=orthogonalEdgeStyle;rounded=0;orthogonalLoop=1;jettySize=auto;html=1;entryX=0.992;entryY=0.375;entryDx=0;entryDy=0;entryPerimeter=0;" edge="1" parent="1" source="qHvhRaKQ_mvzGdm3MgKn-7" target="qHvhRaKQ_mvzGdm3MgKn-9">
          <mxGeometry relative="1" as="geometry" />
        </mxCell>
        <mxCell id="qHvhRaKQ_mvzGdm3MgKn-11" style="edgeStyle=orthogonalEdgeStyle;rounded=0;orthogonalLoop=1;jettySize=auto;html=1;entryX=0;entryY=0.5;entryDx=0;entryDy=0;" edge="1" parent="1" source="qHvhRaKQ_mvzGdm3MgKn-7" target="qHvhRaKQ_mvzGdm3MgKn-8">
          <mxGeometry relative="1" as="geometry" />
        </mxCell>
        <mxCell id="qHvhRaKQ_mvzGdm3MgKn-7" value="Se(media &amp;gt;= 7)" style="rhombus;whiteSpace=wrap;html=1;" vertex="1" parent="1">
          <mxGeometry x="316.5" y="830" width="193" height="180" as="geometry" />
        </mxCell>
        <mxCell id="qHvhRaKQ_mvzGdm3MgKn-21" style="edgeStyle=orthogonalEdgeStyle;rounded=0;orthogonalLoop=1;jettySize=auto;html=1;entryX=1;entryY=0.5;entryDx=0;entryDy=0;" edge="1" parent="1" source="qHvhRaKQ_mvzGdm3MgKn-8" target="qHvhRaKQ_mvzGdm3MgKn-14">
          <mxGeometry relative="1" as="geometry">
            <Array as="points">
              <mxPoint x="725" y="1030" />
              <mxPoint x="547" y="1030" />
              <mxPoint x="547" y="1150" />
            </Array>
          </mxGeometry>
        </mxCell>
        <mxCell id="qHvhRaKQ_mvzGdm3MgKn-8" value="Aluno aprovado" style="shape=document;whiteSpace=wrap;html=1;boundedLbl=1;" vertex="1" parent="1">
          <mxGeometry x="640" y="880" width="170" height="110" as="geometry" />
        </mxCell>
        <mxCell id="qHvhRaKQ_mvzGdm3MgKn-22" style="edgeStyle=orthogonalEdgeStyle;rounded=0;orthogonalLoop=1;jettySize=auto;html=1;entryX=0;entryY=0.5;entryDx=0;entryDy=0;" edge="1" parent="1" source="qHvhRaKQ_mvzGdm3MgKn-9" target="qHvhRaKQ_mvzGdm3MgKn-14">
          <mxGeometry relative="1" as="geometry">
            <Array as="points">
              <mxPoint x="115" y="1060" />
              <mxPoint x="282" y="1060" />
              <mxPoint x="282" y="1150" />
            </Array>
          </mxGeometry>
        </mxCell>
        <mxCell id="qHvhRaKQ_mvzGdm3MgKn-9" value="Aluno reprovado" style="shape=document;whiteSpace=wrap;html=1;boundedLbl=1;" vertex="1" parent="1">
          <mxGeometry x="40" y="890" width="150" height="110" as="geometry" />
        </mxCell>
        <mxCell id="qHvhRaKQ_mvzGdm3MgKn-12" value="V" style="text;html=1;strokeColor=none;fillColor=none;align=center;verticalAlign=middle;whiteSpace=wrap;rounded=0;" vertex="1" parent="1">
          <mxGeometry x="530" y="890" width="60" height="30" as="geometry" />
        </mxCell>
        <mxCell id="qHvhRaKQ_mvzGdm3MgKn-13" value="F" style="text;html=1;strokeColor=none;fillColor=none;align=center;verticalAlign=middle;whiteSpace=wrap;rounded=0;" vertex="1" parent="1">
          <mxGeometry x="230" y="890" width="60" height="30" as="geometry" />
        </mxCell>
        <mxCell id="qHvhRaKQ_mvzGdm3MgKn-14" value="Fim" style="ellipse;whiteSpace=wrap;html=1;aspect=fixed;" vertex="1" parent="1">
          <mxGeometry x="374" y="1110" width="80" height="80" as="geometry" />
        </mxCell>
      </root>
    </mxGraphModel>
  </diagram>
</mxfile>
